<svg width="2209" height="773" viewBox="0 0 2209 773" fill="none" xmlns="http://www.w3.org/2000/svg">
<path fill-rule="evenodd" clip-rule="evenodd" d="M116.5 434.636H21.1818C15.3326 434.636 10.5909 429.895 10.5909 424.045V233.409C10.5909 227.56 15.3326 222.818 21.1818 222.818H116.5V106.318C116.5 100.469 121.242 95.7273 127.091 95.7273H158.864V21.5909C158.864 15.7417 163.605 11 169.455 11H550.727C556.576 11 561.318 15.7417 561.318 21.5909V95.7273H646.045C651.895 95.7273 656.636 100.469 656.636 106.318V688.818H688.409C694.258 688.818 699 693.56 699 699.409C699 705.258 694.258 710 688.409 710H10.5909C4.74171 710 0 705.258 0 699.409C0 693.56 4.74171 688.818 10.5909 688.818H116.5V434.636ZM137.682 434.636V688.818H211.818V508.773C211.818 502.924 216.56 498.182 222.409 498.182H338.909C344.758 498.182 349.5 502.924 349.5 508.773V688.818H635.455V116.909H137.682V222.818H550.727C556.576 222.818 561.318 227.56 561.318 233.409V424.045C561.318 429.895 556.576 434.636 550.727 434.636H137.682ZM180.045 95.7273H540.136V32.1818H180.045V95.7273ZM455.409 244V413.455H540.136V244H455.409ZM349.5 244V413.455H434.227V244H349.5ZM243.591 244V413.455H328.318V244H243.591ZM137.682 244V413.455H222.409V244H137.682ZM31.7727 244V413.455H116.5V244H31.7727ZM233 688.818H328.318V519.364H233V688.818ZM550.727 498.182C556.576 498.182 561.318 502.924 561.318 508.773V593.5C561.318 599.349 556.576 604.091 550.727 604.091H444.818C438.969 604.091 434.227 599.349 434.227 593.5V508.773C434.227 502.924 438.969 498.182 444.818 498.182H550.727ZM540.136 519.364H455.409V582.909H540.136V519.364Z" fill="black"/>
<path d="M859.9 327V84H908.8C925 84 938.4 86.2 949 90.6C959.6 94.8 967.4 101.7 972.4 111.3C977.6 120.7 980.2 133.1 980.2 148.5C980.2 157.9 979.2 166.5 977.2 174.3C975.2 181.9 972 188.4 967.6 193.8C963.2 199 957.4 202.8 950.2 205.2L984.7 327H952L920.2 213H893.8V327H859.9ZM893.8 188.7H906.7C916.3 188.7 924.1 187.5 930.1 185.1C936.1 182.7 940.5 178.6 943.3 172.8C946.1 167 947.5 158.9 947.5 148.5C947.5 134.3 944.9 124.1 939.7 117.9C934.5 111.5 924.2 108.3 908.8 108.3H893.8V188.7ZM1089.57 329.7C1073.17 329.7 1060.07 326.5 1050.27 320.1C1040.47 313.7 1033.47 304.6 1029.27 292.8C1025.07 280.8 1022.97 266.8 1022.97 250.8V158.7C1022.97 142.7 1025.07 129 1029.27 117.6C1033.67 106 1040.67 97.2 1050.27 91.2C1060.07 85 1073.17 81.9 1089.57 81.9C1105.97 81.9 1118.97 85 1128.57 91.2C1138.17 97.4 1145.07 106.2 1149.27 117.6C1153.67 129 1155.87 142.7 1155.87 158.7V251.1C1155.87 266.9 1153.67 280.7 1149.27 292.5C1145.07 304.3 1138.17 313.5 1128.57 320.1C1118.97 326.5 1105.97 329.7 1089.57 329.7ZM1089.57 303C1098.57 303 1105.37 301.2 1109.97 297.6C1114.57 293.8 1117.67 288.6 1119.27 282C1120.87 275.2 1121.67 267.3 1121.67 258.3V151.8C1121.67 142.8 1120.87 135.1 1119.27 128.7C1117.67 122.1 1114.57 117.1 1109.97 113.7C1105.37 110.1 1098.57 108.3 1089.57 108.3C1080.57 108.3 1073.67 110.1 1068.87 113.7C1064.27 117.1 1061.17 122.1 1059.57 128.7C1057.97 135.1 1057.17 142.8 1057.17 151.8V258.3C1057.17 267.3 1057.97 275.2 1059.57 282C1061.17 288.6 1064.27 293.8 1068.87 297.6C1073.67 301.2 1080.57 303 1089.57 303ZM1258.49 329.7C1244.49 329.7 1232.79 326.7 1223.39 320.7C1214.19 314.7 1207.19 306.4 1202.39 295.8C1197.59 285.2 1194.79 272.9 1193.99 258.9L1223.99 250.8C1224.59 259.4 1225.89 267.7 1227.89 275.7C1230.09 283.7 1233.59 290.3 1238.39 295.5C1243.19 300.5 1249.89 303 1258.49 303C1267.29 303 1273.89 300.6 1278.29 295.8C1282.89 290.8 1285.19 283.7 1285.19 274.5C1285.19 263.5 1282.69 254.7 1277.69 248.1C1272.69 241.3 1266.39 234.5 1258.79 227.7L1217.99 191.7C1209.99 184.7 1204.09 177.1 1200.29 168.9C1196.49 160.5 1194.59 150.2 1194.59 138C1194.59 120.2 1199.69 106.4 1209.89 96.6C1220.09 86.8 1233.99 81.9 1251.59 81.9C1261.19 81.9 1269.59 83.2 1276.79 85.8C1284.19 88.2 1290.29 92 1295.09 97.2C1300.09 102.4 1303.99 109 1306.79 117C1309.79 124.8 1311.79 134 1312.79 144.6L1283.99 152.4C1283.39 144.4 1282.19 137.1 1280.39 130.5C1278.59 123.7 1275.39 118.3 1270.79 114.3C1266.39 110.1 1259.99 108 1251.59 108C1243.19 108 1236.59 110.3 1231.79 114.9C1227.19 119.3 1224.89 125.9 1224.89 134.7C1224.89 142.1 1226.09 148.2 1228.49 153C1231.09 157.8 1235.19 162.7 1240.79 167.7L1281.89 203.7C1291.09 211.7 1299.19 221.3 1306.19 232.5C1313.19 243.5 1316.69 256.6 1316.69 271.8C1316.69 283.8 1314.19 294.2 1309.19 303C1304.19 311.6 1297.29 318.2 1288.49 322.8C1279.89 327.4 1269.89 329.7 1258.49 329.7ZM1354.98 327V84H1449.18V109.2H1388.88V189.6H1437.78V213.6H1388.88V302.7H1449.78V327H1354.98ZM1488.55 327L1493.05 84H1526.35L1569.25 281.1L1612.45 84H1645.45L1649.95 327H1622.65L1619.95 150.6L1578.85 327H1559.65L1518.85 150.6L1516.15 327H1488.55ZM1686 327L1737.6 84H1770.3L1822.2 327H1790.1L1779 265.8H1729.5L1717.8 327H1686ZM1734 241.5H1774.5L1754.1 132L1734 241.5ZM1858.85 327V84H1907.75C1923.95 84 1937.35 86.2 1947.95 90.6C1958.55 94.8 1966.35 101.7 1971.35 111.3C1976.55 120.7 1979.15 133.1 1979.15 148.5C1979.15 157.9 1978.15 166.5 1976.15 174.3C1974.15 181.9 1970.95 188.4 1966.55 193.8C1962.15 199 1956.35 202.8 1949.15 205.2L1983.65 327H1950.95L1919.15 213H1892.75V327H1858.85ZM1892.75 188.7H1905.65C1915.25 188.7 1923.05 187.5 1929.05 185.1C1935.05 182.7 1939.45 178.6 1942.25 172.8C1945.05 167 1946.45 158.9 1946.45 148.5C1946.45 134.3 1943.85 124.1 1938.65 117.9C1933.45 111.5 1923.15 108.3 1907.75 108.3H1892.75V188.7ZM2063.62 327V241.2L2011.12 84H2042.62L2079.82 201.3L2116.42 84H2148.22L2096.02 241.2V327H2063.62Z" fill="#C29E79"/>
<path d="M859.9 710V467H908.8C925 467 938.4 469.2 949 473.6C959.6 477.8 967.4 484.7 972.4 494.3C977.6 503.7 980.2 516.1 980.2 531.5C980.2 540.9 979.2 549.5 977.2 557.3C975.2 564.9 972 571.4 967.6 576.8C963.2 582 957.4 585.8 950.2 588.2L984.7 710H952L920.2 596H893.8V710H859.9ZM893.8 571.7H906.7C916.3 571.7 924.1 570.5 930.1 568.1C936.1 565.7 940.5 561.6 943.3 555.8C946.1 550 947.5 541.9 947.5 531.5C947.5 517.3 944.9 507.1 939.7 500.9C934.5 494.5 924.2 491.3 908.8 491.3H893.8V571.7ZM1027.47 710V467H1121.67V492.2H1061.37V572.6H1110.27V596.6H1061.37V685.7H1122.27V710H1027.47ZM1218.93 712.7C1204.93 712.7 1193.23 709.7 1183.83 703.7C1174.63 697.7 1167.63 689.4 1162.83 678.8C1158.03 668.2 1155.23 655.9 1154.43 641.9L1184.43 633.8C1185.03 642.4 1186.33 650.7 1188.33 658.7C1190.53 666.7 1194.03 673.3 1198.83 678.5C1203.63 683.5 1210.33 686 1218.93 686C1227.73 686 1234.33 683.6 1238.73 678.8C1243.33 673.8 1245.63 666.7 1245.63 657.5C1245.63 646.5 1243.13 637.7 1238.13 631.1C1233.13 624.3 1226.83 617.5 1219.23 610.7L1178.43 574.7C1170.43 567.7 1164.53 560.1 1160.73 551.9C1156.93 543.5 1155.03 533.2 1155.03 521C1155.03 503.2 1160.13 489.4 1170.33 479.6C1180.53 469.8 1194.43 464.9 1212.03 464.9C1221.63 464.9 1230.03 466.2 1237.23 468.8C1244.63 471.2 1250.73 475 1255.53 480.2C1260.53 485.4 1264.43 492 1267.23 500C1270.23 507.8 1272.23 517 1273.23 527.6L1244.43 535.4C1243.83 527.4 1242.63 520.1 1240.83 513.5C1239.03 506.7 1235.83 501.3 1231.23 497.3C1226.83 493.1 1220.43 491 1212.03 491C1203.63 491 1197.03 493.3 1192.23 497.9C1187.63 502.3 1185.33 508.9 1185.33 517.7C1185.33 525.1 1186.53 531.2 1188.93 536C1191.53 540.8 1195.63 545.7 1201.23 550.7L1242.33 586.7C1251.53 594.7 1259.63 604.3 1266.63 615.5C1273.63 626.5 1277.13 639.6 1277.13 654.8C1277.13 666.8 1274.63 677.2 1269.63 686C1264.63 694.6 1257.73 701.2 1248.93 705.8C1240.33 710.4 1230.33 712.7 1218.93 712.7ZM1317.23 710V467H1350.53V710H1317.23ZM1401.85 710V467H1454.65C1472.65 467 1486.85 469.8 1497.25 475.4C1507.85 480.8 1515.35 489 1519.75 500C1524.35 511 1526.65 524.7 1526.65 541.1V630.5C1526.65 647.7 1524.35 662.2 1519.75 674C1515.35 685.8 1508.05 694.8 1497.85 701C1487.85 707 1474.35 710 1457.35 710H1401.85ZM1435.75 685.7H1454.95C1467.35 685.7 1476.15 683.3 1481.35 678.5C1486.55 673.7 1489.65 666.7 1490.65 657.5C1491.85 648.3 1492.45 637.2 1492.45 624.2V545.3C1492.45 532.7 1491.65 522.5 1490.05 514.7C1488.45 506.9 1484.95 501.2 1479.55 497.6C1474.15 494 1465.65 492.2 1454.05 492.2H1435.75V685.7ZM1572.05 710V467H1666.25V492.2H1605.95V572.6H1654.85V596.6H1605.95V685.7H1666.85V710H1572.05ZM1706.22 710V467H1729.32L1798.32 628.4V467H1826.52V710H1804.92L1735.02 544.1V710H1706.22ZM1937.61 712.7C1920.41 712.7 1907.01 709.1 1897.41 701.9C1888.01 694.7 1881.41 685 1877.61 672.8C1874.01 660.6 1872.21 647 1872.21 632V546.2C1872.21 529.8 1874.01 515.5 1877.61 503.3C1881.41 491.1 1888.01 481.7 1897.41 475.1C1907.01 468.3 1920.41 464.9 1937.61 464.9C1952.81 464.9 1964.81 467.7 1973.61 473.3C1982.61 478.9 1989.01 486.9 1992.81 497.3C1996.81 507.7 1998.81 520.2 1998.81 534.8V554H1966.71V536.9C1966.71 527.9 1966.21 520 1965.21 513.2C1964.41 506.2 1962.01 500.8 1958.01 497C1954.01 493.2 1947.31 491.3 1937.91 491.3C1928.31 491.3 1921.31 493.4 1916.91 497.6C1912.51 501.6 1909.61 507.4 1908.21 515C1907.01 522.4 1906.41 531.1 1906.41 541.1V637.4C1906.41 649.6 1907.41 659.3 1909.41 666.5C1911.41 673.5 1914.71 678.5 1919.31 681.5C1923.91 684.5 1930.11 686 1937.91 686C1947.11 686 1953.71 684 1957.71 680C1961.71 675.8 1964.21 670.1 1965.21 662.9C1966.21 655.7 1966.71 647.3 1966.71 637.7V619.7H1998.81V637.7C1998.81 652.5 1997.01 665.6 1993.41 677C1989.81 688.2 1983.61 697 1974.81 703.4C1966.01 709.6 1953.61 712.7 1937.61 712.7ZM2043.11 710V467H2137.31V492.2H2077.01V572.6H2125.91V596.6H2077.01V685.7H2137.91V710H2043.11Z" fill="#242424"/>
</svg>
